{"title":"Shrek Forever After 2010 V2 TS H264 FEEL-FREE","uid":5590922,"size":1007561941,"categoryP":"video","categoryS":"movies","magnet":"?xt=urn:btih:63297e69b34418678fbadf7f7b3965a16f35ff39&amp;dn=Shrek+Forever+After+2010+V2+TS+H264+FEEL-FREE&amp;tr=udp%3A%2F%2Ftracker.openbittorrent.com%3A80&amp;tr=udp%3A%2F%2Fopen.demonii.com%3A1337&amp;tr=udp%3A%2F%2Ftracker.coppersurfer.tk%3A6969&amp;tr=udp%3A%2F%2Fexodus.desync.com%3A6969","seeders":0,"leechers":0,"uploader":"neon","files":-1,"time":1274865090,"description":"FEEL-FREE TEAM\n\n\n...................................................\nGenre:Animation | Adventure | Comedy | Family | Fantasy\nSource Audio:Prism.Thank You!\nSource video:TS ELEKTI4KA.Thank You!\nAudio Language.: English\nIMDB:http://www.imdb.com/title/tt0892791/\nEncoder: Tony2\n.................................................\nGeneral\nComplete name : Shrek Forever After 2010 V2 TS H264 FEEL-FREE.mp4\nFormat : MPEG-4\nFormat profile : Base Media\nCodec ID : isom\nFile size : 959 MiB\nDuration : 1h 21mn\nOverall bit rate : 1 637 Kbps\n..................................................\nVideo\nID : 2\nFormat : AVC\nFormat/Info : Advanced Video Codec\nFormat profile : &lt;a class=&quot;__cf_email__&quot; href=&quot;/cdn-cgi/l/email-protection&quot; data-cfemail=&quot;0b496a786e6762656e4b473a2538&quot;&gt;[email&amp;#160;protected]&lt;/a&gt;&lt;script cf-hash='f9e31' type=&quot;text/javascript&quot;&gt;\n/* &lt;![CDATA[ */!function(){try{var t=&quot;currentScript&quot;in document?document.currentScript:function(){for(var t=document.getElementsByTagName(&quot;script&quot;),e=t.length;e--;)if(t[e].getAttribute(&quot;cf-hash&quot;))return t[e]}();if(t&amp;&amp;t.previousSibling){var e,r,n,i,c=t.previousSibling,a=c.getAttribute(&quot;data-cfemail&quot;);if(a){for(e=&quot;&quot;,r=parseInt(a.substr(0,2),16),n=2;a.length-n;n+=2)i=parseInt(a.substr(n,2),16)^r,e+=String.fromCharCode(i);e=document.createTextNode(e),c.parentNode.replaceChild(e,c)}}}catch(u){}}();/* ]]&gt; */&lt;/script&gt;\nFormat settings, CABAC : No\nFormat settings, ReFrames : 1 frame\nCodec ID : avc1\nCodec ID/Info : Advanced Video Coding\nDuration : 1h 21mn\nBit rate mode : Variable\nBit rate : 1 504 Kbps\nWidth : 720 pixels\nHeight : 288 pixels\nDisplay aspect ratio : 2.500\nFrame rate mode : Constant\nFrame rate : 25.000 fps\nResolution : 24 bits\nColorimetry : 4:2:0\nScan type : Progressive\nBits/(Pixel*Frame) : 0.290\nStream size : 881 MiB (92%)\nLanguage : English\n.................................................\nAudio\nID : 1\nFormat : AAC\nFormat/Info : Advanced Audio Codec\nFormat version : Version 4\nFormat profile : LC\nFormat settings, SBR : No\nCodec ID : 40\nDuration : 1h 21mn\nBit rate mode : Constant\nBit rate : 128 Kbps\nChannel(s) : 2 channels\nChannel positions : L R\nSampling rate : 48.0 KHz\nResolution : 16 bits\nStream size : 74.9 MiB (8%)\nLanguage : English\n................................................\nPlot:The further adventures of the giant green ogre, Shrek, living in the land of Far, Far Away.\n\n &lt;a href=&quot;\nhttp://img594.imageshack.us/img594/6730/262xriq.png&quot; rel=&quot;nofollow&quot; target=&quot;_NEW&quot;&gt;\nhttp://img594.imageshack.us/img594/6730/262xriq.png&lt;/a&gt; &lt;a href=&quot;\nhttp://img97.imageshack.us/img97/43/30nixl5.png&quot; rel=&quot;nofollow&quot; target=&quot;_NEW&quot;&gt;\nhttp://img97.imageshack.us/img97/43/30nixl5.png&lt;/a&gt; &lt;a href=&quot;\nhttp://img175.imageshack.us/img175/5665/334rog1.png&quot; rel=&quot;nofollow&quot; target=&quot;_NEW&quot;&gt;\nhttp://img175.imageshack.us/img175/5665/334rog1.png&lt;/a&gt; &lt;a href=&quot;\nhttp://img8.imageshack.us/img8/3793/21do9b4.png&quot; rel=&quot;nofollow&quot; target=&quot;_NEW&quot;&gt;\nhttp://img8.imageshack.us/img8/3793/21do9b4.png&lt;/a&gt;\n","torrent":{"xt":"urn:btih:63297e69b34418678fbadf7f7b3965a16f35ff39","amp;dn":"Shrek+Forever+After+2010+V2+TS+H264+FEEL-FREE","amp;tr":["udp%3A%2F%2Ftracker.openbittorrent.com%3A80","udp%3A%2F%2Fopen.demonii.com%3A1337","udp%3A%2F%2Ftracker.coppersurfer.tk%3A6969","udp%3A%2F%2Fexodus.desync.com%3A6969"],"infoHash":"63297e69b34418678fbadf7f7b3965a16f35ff39","infoHashBuffer":{"type":"Buffer","data":[99,41,126,105,179,68,24,103,143,186,223,127,123,57,101,161,111,53,255,57]},"announce":[],"urlList":[]}}